<?xml version="1.0" encoding="UTF-8"?>
        <svg xmlns="http://www.w3.org/2000/svg" xmlns:xlink="http://www.w3.org/1999/xlink"
             width="160" height="160" viewBox="0 -1600 1600 1600">

<defs>

</defs>

<rect fill="#84A1AE" height="70" rx="15" width="70" x="115" y="-185" />
<rect fill="#84A1AE" height="70" rx="15" width="70" x="115" y="-285" />
<rect fill="#84A1AE" height="70" rx="15" width="70" x="115" y="-385" />
<rect fill="#84A1AE" height="70" rx="15" width="70" x="115" y="-485" />
<rect fill="#84A1AE" height="70" rx="15" width="70" x="115" y="-585" />
<rect fill="#84A1AE" height="70" rx="15" width="70" x="115" y="-685" />
<rect fill="#84A1AE" height="70" rx="15" width="70" x="115" y="-785" />
<rect fill="#84A1AE" height="70" rx="15" width="70" x="115" y="-885" />
<rect fill="#84A1AE" height="70" rx="15" width="70" x="115" y="-985" />
<rect fill="#84A1AE" height="70" rx="15" width="70" x="115" y="-1085" />
<rect fill="#84A1AE" height="70" rx="15" width="70" x="115" y="-1185" />
<rect fill="#84A1AE" height="70" rx="15" width="70" x="115" y="-1285" />
<rect fill="#84A1AE" height="70" rx="15" width="70" x="115" y="-1385" />
<rect fill="#84A1AE" height="70" rx="15" width="70" x="115" y="-1485" />
<rect fill="#84A1AE" height="70" rx="15" width="70" x="215" y="-185" />
<rect fill="#84A1AE" height="70" rx="15" width="70" x="215" y="-285" />
<rect fill="#84A1AE" height="70" rx="15" width="70" x="215" y="-385" />
<rect fill="#84A1AE" height="70" rx="15" width="70" x="215" y="-785" />
<rect fill="#84A1AE" height="70" rx="15" width="70" x="215" y="-985" />
<rect fill="#84A1AE" height="70" rx="15" width="70" x="215" y="-1485" />
<rect fill="#84A1AE" height="70" rx="15" width="70" x="315" y="-185" />
<rect fill="#84A1AE" height="70" rx="15" width="70" x="315" y="-685" />
<rect fill="#84A1AE" height="70" rx="15" width="70" x="315" y="-885" />
<rect fill="#84A1AE" height="70" rx="15" width="70" x="315" y="-1385" />
<rect fill="#84A1AE" height="70" rx="15" width="70" x="315" y="-1485" />
<rect fill="#84A1AE" height="70" rx="15" width="70" x="415" y="-185" />
<rect fill="#84A1AE" height="70" rx="15" width="70" x="415" y="-685" />
<rect fill="#84A1AE" height="70" rx="15" width="70" x="415" y="-785" />
<rect fill="#84A1AE" height="70" rx="15" width="70" x="415" y="-885" />
<rect fill="#84A1AE" height="70" rx="15" width="70" x="415" y="-985" />
<rect fill="#84A1AE" height="70" rx="15" width="70" x="415" y="-1385" />
<rect fill="#84A1AE" height="70" rx="15" width="70" x="415" y="-1485" />
<rect fill="#84A1AE" height="70" rx="15" width="70" x="515" y="-185" />
<rect fill="#84A1AE" height="70" rx="15" width="70" x="515" y="-485" />
<rect fill="#84A1AE" height="70" rx="15" width="70" x="515" y="-585" />
<rect fill="#84A1AE" height="70" rx="15" width="70" x="515" y="-1485" />
<rect fill="#84A1AE" height="70" rx="15" width="70" x="615" y="-185" />
<rect fill="#84A1AE" height="70" rx="15" width="70" x="615" y="-285" />
<rect fill="#84A1AE" height="70" rx="15" width="70" x="615" y="-385" />
<rect fill="#84A1AE" height="70" rx="15" width="70" x="615" y="-585" />
<rect fill="#84A1AE" height="70" rx="15" width="70" x="615" y="-1085" />
<rect fill="#84A1AE" height="70" rx="15" width="70" x="615" y="-1485" />
<rect fill="#84A1AE" height="70" rx="15" width="70" x="715" y="-185" />
<rect fill="#84A1AE" height="70" rx="15" width="70" x="715" y="-285" />
<rect fill="#84A1AE" height="70" rx="15" width="70" x="715" y="-585" />
<rect fill="#84A1AE" height="70" rx="15" width="70" x="715" y="-885" />
<rect fill="#84A1AE" height="70" rx="15" width="70" x="715" y="-1185" />
<rect fill="#84A1AE" height="70" rx="15" width="70" x="715" y="-1385" />
<rect fill="#84A1AE" height="70" rx="15" width="70" x="715" y="-1485" />
<rect fill="#84A1AE" height="70" rx="15" width="70" x="815" y="-185" />
<rect fill="#84A1AE" height="70" rx="15" width="70" x="815" y="-585" />
<rect fill="#84A1AE" height="70" rx="15" width="70" x="815" y="-785" />
<rect fill="#84A1AE" height="70" rx="15" width="70" x="815" y="-1085" />
<rect fill="#84A1AE" height="70" rx="15" width="70" x="815" y="-1185" />
<rect fill="#84A1AE" height="70" rx="15" width="70" x="815" y="-1285" />
<rect fill="#84A1AE" height="70" rx="15" width="70" x="815" y="-1485" />
<rect fill="#84A1AE" height="70" rx="15" width="70" x="915" y="-185" />
<rect fill="#84A1AE" height="70" rx="15" width="70" x="915" y="-285" />
<rect fill="#84A1AE" height="70" rx="15" width="70" x="915" y="-685" />
<rect fill="#84A1AE" height="70" rx="15" width="70" x="915" y="-1185" />
<rect fill="#84A1AE" height="70" rx="15" width="70" x="915" y="-1385" />
<rect fill="#84A1AE" height="70" rx="15" width="70" x="915" y="-1485" />
<rect fill="#84A1AE" height="70" rx="15" width="70" x="1015" y="-185" />
<rect fill="#84A1AE" height="70" rx="15" width="70" x="1015" y="-385" />
<rect fill="#84A1AE" height="70" rx="15" width="70" x="1015" y="-885" />
<rect fill="#84A1AE" height="70" rx="15" width="70" x="1015" y="-1085" />
<rect fill="#84A1AE" height="70" rx="15" width="70" x="1015" y="-1185" />
<rect fill="#84A1AE" height="70" rx="15" width="70" x="1015" y="-1285" />
<rect fill="#84A1AE" height="70" rx="15" width="70" x="1015" y="-1385" />
<rect fill="#84A1AE" height="70" rx="15" width="70" x="1015" y="-1485" />
<rect fill="#84A1AE" height="70" rx="15" width="70" x="1115" y="-185" />
<rect fill="#84A1AE" height="70" rx="15" width="70" x="1115" y="-485" />
<rect fill="#84A1AE" height="70" rx="15" width="70" x="1115" y="-685" />
<rect fill="#84A1AE" height="70" rx="15" width="70" x="1115" y="-985" />
<rect fill="#84A1AE" height="70" rx="15" width="70" x="1115" y="-1485" />
<rect fill="#84A1AE" height="70" rx="15" width="70" x="1215" y="-185" />
<rect fill="#84A1AE" height="70" rx="15" width="70" x="1215" y="-385" />
<rect fill="#84A1AE" height="70" rx="15" width="70" x="1215" y="-885" />
<rect fill="#84A1AE" height="70" rx="15" width="70" x="1215" y="-1385" />
<rect fill="#84A1AE" height="70" rx="15" width="70" x="1215" y="-1485" />
<rect fill="#84A1AE" height="70" rx="15" width="70" x="1315" y="-185" />
<rect fill="#84A1AE" height="70" rx="15" width="70" x="1315" y="-385" />
<rect fill="#84A1AE" height="70" rx="15" width="70" x="1315" y="-585" />
<rect fill="#84A1AE" height="70" rx="15" width="70" x="1315" y="-685" />
<rect fill="#84A1AE" height="70" rx="15" width="70" x="1315" y="-1185" />
<rect fill="#84A1AE" height="70" rx="15" width="70" x="1315" y="-1485" />
<rect fill="#84A1AE" height="70" rx="15" width="70" x="1415" y="-185" />
<rect fill="#84A1AE" height="70" rx="15" width="70" x="1415" y="-285" />
<rect fill="#84A1AE" height="70" rx="15" width="70" x="1415" y="-385" />
<rect fill="#84A1AE" height="70" rx="15" width="70" x="1415" y="-485" />
<rect fill="#84A1AE" height="70" rx="15" width="70" x="1415" y="-585" />
<rect fill="#84A1AE" height="70" rx="15" width="70" x="1415" y="-685" />
<rect fill="#84A1AE" height="70" rx="15" width="70" x="1415" y="-785" />
<rect fill="#84A1AE" height="70" rx="15" width="70" x="1415" y="-885" />
<rect fill="#84A1AE" height="70" rx="15" width="70" x="1415" y="-985" />
<rect fill="#84A1AE" height="70" rx="15" width="70" x="1415" y="-1085" />
<rect fill="#84A1AE" height="70" rx="15" width="70" x="1415" y="-1185" />
<rect fill="#84A1AE" height="70" rx="15" width="70" x="1415" y="-1285" />
<rect fill="#84A1AE" height="70" rx="15" width="70" x="1415" y="-1385" />
<rect fill="#84A1AE" height="70" rx="15" width="70" x="1415" y="-1485" />
<circle cx="950" cy="-550" fill="#c1433c" r="35"> <animate attributeName="cy" dur="7.840000000000001s" keyTimes="0.0;0.0344827586;0.3793103448;0.4137931034;0.4482758621;0.4827586207;0.5172413793;0.5517241379;0.5862068966;0.6551724138;0.6896551724;0.724137931;0.8620689655;0.8965517241;0.9310344828;1.0" repeatCount="indefinite" values="-550;-550;-550;-650;-650;-750;-650;-650;-750;-750;-850;-950;-950;-1050;-1150;-1150"/>
<animate attributeName="cx" dur="7.840000000000001s" keyTimes="0.0;0.0344827586;0.0689655172;0.1034482759;0.1379310345;0.1724137931;0.2068965517;0.2413793103;0.3103448276;0.3448275862;0.6206896552;0.6551724138;0.724137931;0.7586206897;0.7931034483;0.8275862069;0.8620689655;0.9655172414;1.0" repeatCount="indefinite" values="950;950;950;1050;1150;1150;1050;1150;1150;1050;1050;950;950;850;750;650;550;550;650"/>
<animate attributeName="visibility" dur="7.840000000000001s" keyTimes="0.0;0.0344827586;0.9655172414;1.0" repeatCount="indefinite" values="visible;visible;visible;hidden"/> </circle>
<circle cx="1150" cy="-350" fill="#2e6f9e" r="35"> <animate attributeName="cy" dur="7.840000000000001s" keyTimes="0.0;0.0344827586;0.0689655172;1.0" repeatCount="indefinite" values="-350;-350;-250;-250"/>
<animate attributeName="cx" dur="7.840000000000001s" keyTimes="0.0;0.0344827586;0.0689655172;0.1034482759;1.0" repeatCount="indefinite" values="1150;1150;1150;1050;1050"/>
<animate attributeName="visibility" dur="7.840000000000001s" keyTimes="0.0;0.0344827586;0.0689655172;0.1034482759;1.0" repeatCount="indefinite" values="visible;visible;visible;hidden;hidden"/> </circle>
<circle cx="950" cy="-1050" fill="#6e81af" r="35"> <animate attributeName="cy" dur="7.840000000000001s" keyTimes="0.0;0.0344827586;0.0689655172;1.0" repeatCount="indefinite" values="-1050;-1050;-950;-950"/>
<animate attributeName="cx" dur="7.840000000000001s" keyTimes="0.0;0.0344827586;0.0689655172;0.1034482759;0.1379310345;0.1724137931;0.2068965517;1.0" repeatCount="indefinite" values="950;950;950;850;750;650;550;550"/>
<animate attributeName="visibility" dur="7.840000000000001s" keyTimes="0.0;0.0344827586;0.1724137931;0.2068965517;1.0" repeatCount="indefinite" values="visible;visible;visible;hidden;hidden"/> </circle>
<circle cx="1350" cy="-450" fill="#00b9c8" r="35"> <animate attributeName="cy" dur="7.840000000000001s" keyTimes="0.0;0.0344827586;0.0689655172;0.1034482759;0.1379310345;0.1724137931;0.2068965517;0.2413793103;0.275862069;1.0" repeatCount="indefinite" values="-450;-450;-450;-550;-650;-750;-750;-850;-950;-950"/>
<animate attributeName="cx" dur="7.840000000000001s" keyTimes="0.0;0.0344827586;0.0689655172;0.1724137931;0.2068965517;1.0" repeatCount="indefinite" values="1350;1350;1250;1250;1350;1350"/>
<animate attributeName="visibility" dur="7.840000000000001s" keyTimes="0.0;0.0344827586;0.2413793103;0.275862069;1.0" repeatCount="indefinite" values="visible;visible;visible;hidden;hidden"/> </circle>
<circle cx="650" cy="-1150" fill="none" r="35" stroke="#c1433c" stroke-width="10"> <animate attributeName="visibility" dur="7.840000000000001s" keyTimes="0.0;0.0344827586;0.9655172414;1.0" repeatCount="indefinite" values="visible;visible;visible;hidden"/> </circle>
<circle cx="1050" cy="-250" fill="none" r="35" stroke="#2e6f9e" stroke-width="10"> <animate attributeName="visibility" dur="7.840000000000001s" keyTimes="0.0;0.0344827586;0.0689655172;0.1034482759;1.0" repeatCount="indefinite" values="visible;visible;visible;hidden;hidden"/> </circle>
<circle cx="550" cy="-950" fill="none" r="35" stroke="#6e81af" stroke-width="10"> <animate attributeName="visibility" dur="7.840000000000001s" keyTimes="0.0;0.0344827586;0.1724137931;0.2068965517;1.0" repeatCount="indefinite" values="visible;visible;visible;hidden;hidden"/> </circle>
<circle cx="1350" cy="-950" fill="none" r="35" stroke="#00b9c8" stroke-width="10"> <animate attributeName="visibility" dur="7.840000000000001s" keyTimes="0.0;0.0344827586;0.2413793103;0.275862069;1.0" repeatCount="indefinite" values="visible;visible;visible;hidden;hidden"/> </circle>
</svg>